<svg width="357" height="97" xmlns="http://www.w3.org/2000/svg" xmlns:xlink="http://www.w3.org/1999/xlink"><defs><path id="a" d="M0 .785h82.967v95.417H0z"/><path id="c" d="M.079.2H36.99v50.525H.079z"/></defs><g fill="none" fill-rule="evenodd"><g transform="translate(0 .098)"><mask id="b" fill="#fff"><use xlink:href="#a"/></mask><path d="M41.484.785C18.573.785 0 19.148 0 41.8c0 28.028 28.23 44.585 38.114 53.15a5.158 5.158 0 006.74 0c9.884-8.565 38.113-25.122 38.113-53.15C82.967 19.148 64.394.785 41.484.785" fill="#18B1F6" mask="url(#b)"/></g><path d="M15.94 22.356c-4.234 5.4-6.755 12.18-6.755 19.54 0 7.363 2.521 14.14 6.754 19.542 6.19-4.345 10.24-11.481 10.24-19.541S22.13 26.7 15.94 22.357m51.088-.001c-6.19 4.344-10.24 11.482-10.24 19.54 0 8.06 4.05 15.197 10.24 19.542 4.233-5.401 6.754-12.18 6.754-19.541 0-7.36-2.521-14.14-6.754-19.54" fill="#FFF"/><path d="M48.997 41.897c0-10.194 4.9-19.276 12.492-25.07a32.394 32.394 0 00-20.005-6.863c-7.556 0-14.505 2.566-20.006 6.863 7.592 5.794 12.491 14.876 12.491 25.07s-4.899 19.276-12.491 25.07c5.501 4.298 12.45 6.863 20.006 6.863 7.555 0 14.503-2.565 20.005-6.863-7.592-5.794-12.492-14.876-12.492-25.07" fill="#FFF"/><path fill="#1E1E1E" d="M161.797 13.6H147.53l-28.457 35.122V13.6H106.99v67.87h12.083V66.285l6.763-8.463 21.523 23.647h15.515l-29.133-32.26z"/><path d="M190.795 65.549c0 4.62-4.769 7.26-8.87 7.26-4.388 0-9.062-2.64-9.062-7.26V48.48c0-4.621 4.674-6.79 9.061-6.79 4.102 0 8.871 2.169 8.871 6.79v17.07zm-8.87-33.95c-9.73.095-19.554 5.658-19.554 16.881v17.07c0 11.41 9.824 16.786 19.553 16.88 9.539-.094 19.363-5.47 19.363-16.88V48.48c0-11.223-9.824-16.786-19.363-16.88zm56.541 40.268c-6.2 3.3-17.455 1.98-17.836-6.13V32.731h-10.493v32.817c0 19.238 22.415 19.898 38.725 12.92V32.73h-10.396v39.136zm35.537-39.136c-.19 0-.38.095-.572.095-1.716.377-3.338.848-4.77 1.603-5.34 2.64-9.156 7.732-9.156 14.71V81.58h10.493V49.328c0-6.6 8.68-8.864 14.116-7.261V32.92c-2.194-.472-4.006-.566-5.627-.566-1.431 0-3.53.094-4.484.377m28.5 32.157V43.104h9.442V32.731h-9.442V14.814h-10.397v50.169c0 13.956 9.824 18.766 21.365 17.068v-8.958c-5.722 0-10.968-.471-10.968-8.205" fill="#1E1E1E"/><g transform="translate(319.58 31.871)"><mask id="d" fill="#fff"><use xlink:href="#c"/></mask><path d="M20.681 20.663c-4.102-.66-9.347-2.075-8.966-6.412.572-6.13 12.4-5.659 17.837-.283l6.295-6.79C30.982 2.463 24.973.2 19.727.2 11.334.2 1.319 4.254 1.319 15.1c0 11.033 10.587 13.768 17.55 15.088 3.433.754 7.725 1.792 7.725 5.375-.38 7.922-13.639 7.167-18.694-1.509L.079 39.052c7.82 16.88 36.912 15.278 36.912-3.678-.095-10.373-8.394-13.39-16.31-14.71" fill="#1E1E1E" mask="url(#d)"/></g></g></svg>